<svg xmlns="http://www.w3.org/2000/svg" width="39" height="20" fill="none"><path fill="#1A1A1A" d="M19.352 19.765c10.568 0 19.133-4.38 19.133-9.78 0-5.4-8.565-9.782-19.133-9.782S.222 4.582.222 9.986c0 5.403 8.569 9.779 19.13 9.779Zm3.6-4.793c-.31.732-.868 2.31-2.125 2.943-.379.185-.854.278-1.282.285-.093.007-.157 0-.19 0-3.46 0-6.696-.468-9.414-1.271-.2-.057-.643-.168-.643-.44 0-.12.064-.217.157-.307.04-.039.097-.085.172-.15.632-.532 2.553-1.918 6.153-3.29 1.265-.481 2.843-1.085 4.497-1.431.979-.207 4.579-.75 2.672 3.664m9.668-9.857c.068-.125.16-.222.321-.229.09-.014.207.014.393.125 2.25 1.386 3.582 3.104 3.582 4.972 0 3.375-4.34 6.271-10.554 7.543-.4.078-.66.078-.753-.029-.057-.064-.075-.171 0-.3a1.07 1.07 0 0 1 .164-.225c3.382-3.986 5.961-9.854 6.69-11.557.05-.111.11-.225.157-.297M15.809 4.99c.314-.732.868-2.314 2.129-2.943.378-.19.857-.275 1.275-.29h.196c3.468 0 6.697.472 9.422 1.29.196.06.632.14.632.422 0 .125-.071.225-.16.31-.04.043-.094.093-.176.154-.632.532-2.546 1.914-6.146 3.286-1.265.493-2.854 1.085-4.5 1.439-.976.204-4.576.75-2.672-3.664m-3.46-2.536c.403-.082.706-.082.8.025.056.06.078.168 0 .3-.047.071-.086.132-.165.228-3.386 3.983-5.957 9.854-6.69 11.547-.057.122-.11.24-.153.315-.079.121-.165.21-.329.225-.082 0-.207-.018-.396-.133-2.24-1.378-3.629-3.103-3.629-4.968 0-3.371 4.35-6.278 10.558-7.54"/></svg>