<svg width="251" height="155" viewBox="0 0 251 155" fill="none" xmlns="http://www.w3.org/2000/svg">
<path d="M250.5 150.502C250.5 152.711 248.709 154.502 246.5 154.502L3.99902 154.502C1.78989 154.502 -0.000976719 152.711 -0.000976913 150.502L-0.00098878 14.9242C-0.000988973 12.7151 1.78986 10.9242 3.999 10.9242L222.152 10.924C223.467 10.924 224.699 10.2769 225.445 9.19348L230.821 1.39092C231.616 0.237245 233.32 0.237245 234.115 1.39093L239.491 9.19348C240.238 10.2769 241.469 10.924 242.785 10.924L246.5 10.924C248.709 10.924 250.5 12.7149 250.5 14.924L250.5 150.502Z" fill="white"/>
<path d="M250.5 150.502C250.5 152.711 248.709 154.502 246.5 154.502L3.99902 154.502C1.78989 154.502 -0.000976719 152.711 -0.000976913 150.502L-0.00098878 14.9242C-0.000988973 12.7151 1.78986 10.9242 3.999 10.9242L222.152 10.924C223.467 10.924 224.699 10.2769 225.445 9.19348L230.821 1.39092C231.616 0.237245 233.32 0.237245 234.115 1.39093L239.491 9.19348C240.238 10.2769 241.469 10.924 242.785 10.924L246.5 10.924C248.709 10.924 250.5 12.7149 250.5 14.924L250.5 150.502Z" fill="#A2C7E7" fill-opacity="0.3"/>
</svg>
