<svg  viewBox="0 0 24 24" fill="currentColor" xmlns="http://www.w3.org/2000/svg">
<path d="M21.75 20.6895L16.086 15.0255C17.4471 13.3914 18.1258 11.2956 17.981 9.17389C17.8362 7.05219 16.8789 5.06801 15.3084 3.6341C13.7379 2.2002 11.6751 1.42697 9.54896 1.47528C7.42288 1.52359 5.39726 2.38971 3.8935 3.89347C2.38974 5.39723 1.52362 7.42284 1.47531 9.54893C1.427 11.675 2.20023 13.7379 3.63413 15.3084C5.06804 16.8789 7.05222 17.8361 9.17392 17.981C11.2956 18.1258 13.3915 17.4471 15.0255 16.086L20.6895 21.75L21.75 20.6895ZM3 9.74996C3 8.41494 3.39588 7.1099 4.13758 5.99987C4.87928 4.88983 5.93348 4.02467 7.16688 3.51378C8.40028 3.00289 9.75748 2.86921 11.0669 3.12966C12.3762 3.39011 13.579 4.03299 14.523 4.97699C15.467 5.921 16.1098 7.12373 16.3703 8.4331C16.6307 9.74248 16.4971 11.0997 15.9862 12.3331C15.4753 13.5665 14.6101 14.6207 13.5001 15.3624C12.3901 16.1041 11.085 16.5 9.75 16.5C7.96039 16.498 6.24466 15.7862 4.97922 14.5207C3.71378 13.2553 3.00198 11.5396 3 9.74996Z" fill="inherit"/>
</svg>
