<svg width="256" height="236" viewBox="0 0 256 236" fill="none" xmlns="http://www.w3.org/2000/svg">
<g id="Rectangle 830252">
<path d="M0 4C0 1.79086 1.79086 0 4 0H252C254.209 0 256 1.79086 256 4V223C256 225.209 254.209 227 252 227H76.5069C75.5356 227 74.5975 227.353 73.8677 227.994L66.0696 234.841C65.3147 235.504 64.1853 235.504 63.4304 234.841L55.6323 227.994C54.9025 227.353 53.9644 227 52.9931 227H4C1.79086 227 0 225.209 0 223V4Z" fill="white"/>
<path d="M0 4C0 1.79086 1.79086 0 4 0H252C254.209 0 256 1.79086 256 4V223C256 225.209 254.209 227 252 227H76.5069C75.5356 227 74.5975 227.353 73.8677 227.994L66.0696 234.841C65.3147 235.504 64.1853 235.504 63.4304 234.841L55.6323 227.994C54.9025 227.353 53.9644 227 52.9931 227H4C1.79086 227 0 225.209 0 223V4Z" fill="#A2C7E7" fill-opacity="0.3"/>
</g>
</svg>
