<svg width="323" height="35" viewBox="0 0 323 35" fill="none" xmlns="http://www.w3.org/2000/svg">
<path d="M322.5 17.5C322.5 17.9367 322.298 18.4173 321.801 18.9474C321.302 19.4797 320.535 20.0288 319.485 20.585C317.386 21.6967 314.257 22.784 310.184 23.8274C302.046 25.9123 290.249 27.7947 275.644 29.3773C246.441 32.5417 206.085 34.5 161.5 34.5C116.915 34.5 76.559 32.5417 47.3561 29.3773C32.7515 27.7947 20.9535 25.9123 12.8156 23.8274C8.74257 22.784 5.61445 21.6967 3.51509 20.585C2.46478 20.0288 1.69752 19.4797 1.19863 18.9474C0.701892 18.4173 0.5 17.9367 0.5 17.5C0.5 17.0633 0.701892 16.5827 1.19863 16.0526C1.69752 15.5203 2.46478 14.9712 3.51509 14.415C5.61445 13.3033 8.74257 12.216 12.8156 11.1726C20.9535 9.0877 32.7515 7.20527 47.3561 5.62272C76.559 2.45833 116.915 0.5 161.5 0.5C206.085 0.5 246.441 2.45833 275.644 5.62272C290.249 7.20527 302.046 9.0877 310.184 11.1726C314.257 12.216 317.386 13.3033 319.485 14.415C320.535 14.9712 321.302 15.5203 321.801 16.0526C322.298 16.5827 322.5 17.0633 322.5 17.5Z" stroke="url(#paint0_linear_6_14303)"/>
<defs>
<linearGradient id="paint0_linear_6_14303" x1="161.5" y1="0" x2="161.5" y2="35" gradientUnits="userSpaceOnUse">
<stop offset="0.447917" stop-opacity="0"/>
<stop offset="1"/>
</linearGradient>
</defs>
</svg>
