<svg width="39" height="20" viewBox="0 0 39 20" fill="none" xmlns="http://www.w3.org/2000/svg">
<path d="M19.352 19.7646C29.9203 19.7646 38.4849 15.3859 38.4849 9.98566C38.4849 4.58544 29.9203 0.203125 19.352 0.203125C8.78371 0.203125 0.222656 4.58187 0.222656 9.98566C0.222656 15.3894 8.79086 19.7646 19.352 19.7646ZM22.9521 14.9716C22.6414 15.7037 22.0842 17.2824 20.827 17.9145C20.4485 18.1003 19.9734 18.1931 19.5449 18.2003C19.452 18.2074 19.3877 18.2003 19.3556 18.2003C15.8947 18.2003 12.6589 17.7324 9.9409 16.9288C9.74089 16.8716 9.29802 16.7609 9.29802 16.4895C9.29802 16.3681 9.36231 16.2716 9.45517 16.1823C9.49446 16.143 9.5516 16.0966 9.6266 16.0323C10.2588 15.5002 12.1803 14.1144 15.7804 12.7429C17.0448 12.2607 18.6234 11.6572 20.277 11.3107C21.2556 11.1036 24.8558 10.5607 22.9486 14.9751M32.6168 5.11761C32.6847 4.9926 32.7775 4.89617 32.9382 4.88903C33.0275 4.87474 33.1454 4.90331 33.3311 5.01403C35.5812 6.3998 36.9134 8.11773 36.9134 9.98566C36.9134 13.3608 32.5739 16.2573 26.3594 17.5288C25.9594 17.6074 25.6987 17.6074 25.6058 17.5002C25.5487 17.436 25.5308 17.3288 25.6058 17.2002C25.6451 17.1252 25.688 17.0681 25.7701 16.9752C29.1524 12.9894 31.7311 7.12126 32.4597 5.41762C32.5097 5.3069 32.5704 5.19261 32.6168 5.12118M15.809 4.98903C16.1233 4.25686 16.6769 2.67465 17.9376 2.04606C18.3162 1.85676 18.7948 1.77104 19.2127 1.75676H19.4091C22.8771 1.75676 26.1058 2.22821 28.8309 3.0461C29.0274 3.10681 29.4631 3.18539 29.4631 3.46754C29.4631 3.59255 29.3917 3.69255 29.3024 3.77827C29.2631 3.82113 29.2095 3.87113 29.1274 3.93185C28.4952 4.46401 26.5809 5.84621 22.9807 7.21769C21.7164 7.71057 20.127 8.30345 18.4805 8.65703C17.5055 8.86061 13.9053 9.40706 15.809 4.9926M12.3481 2.45679C12.7517 2.37464 13.0553 2.37464 13.1482 2.48179C13.2053 2.5425 13.2267 2.64965 13.1482 2.7818C13.1017 2.85323 13.0625 2.91395 12.9839 3.01038C9.59803 6.99268 7.0265 12.8643 6.29433 14.5573C6.23718 14.6787 6.18361 14.7966 6.14075 14.8716C6.06217 14.993 5.97646 15.0823 5.81216 15.0966C5.73002 15.0966 5.60501 15.0787 5.41572 14.9644C3.17635 13.5858 1.787 11.8607 1.787 9.99637C1.787 6.62481 6.13718 3.71755 12.3446 2.45679" fill="#1A1A1A"/>
</svg>
